<svg width="90" height="90" viewBox="0 0 90 90" fill="none" xmlns="http://www.w3.org/2000/svg">
<path d="M45 90C20.1852 90 0 69.8148 0 45C0 20.1852 20.1852 0 45 0C69.8148 0 90 20.1852 90 45C90 69.8148 69.8148 90 45 90ZM45 7.2C24.156 7.2 7.2 24.156 7.2 45C7.2 65.844 24.156 82.8 45 82.8C65.844 82.8 82.8 65.8404 82.8 45C82.8 24.1596 65.844 7.2 45 7.2Z" fill="#E6E5FF"/>
<path d="M44.9998 70.1998C44.045 70.1998 43.1293 69.8205 42.4542 69.1454C41.7791 68.4703 41.3998 67.5546 41.3998 66.5998V23.3998C41.3998 22.445 41.7791 21.5294 42.4542 20.8542C43.1293 20.1791 44.045 19.7998 44.9998 19.7998C45.9546 19.7998 46.8702 20.1791 47.5454 20.8542C48.2205 21.5294 48.5998 22.445 48.5998 23.3998V66.5998C48.5998 67.5546 48.2205 68.4703 47.5454 69.1454C46.8702 69.8205 45.9546 70.1998 44.9998 70.1998Z" fill="#E6E5FF"/>
<path d="M66.5993 48.6H23.3993C22.4445 48.6 21.5289 48.2207 20.8537 47.5456C20.1786 46.8705 19.7993 45.9548 19.7993 45C19.7993 44.0452 20.1786 43.1296 20.8537 42.4544C21.5289 41.7793 22.4445 41.4 23.3993 41.4H66.5993C67.5541 41.4 68.4698 41.7793 69.1449 42.4544C69.82 43.1296 70.1993 44.0452 70.1993 45C70.1993 45.9548 69.82 46.8705 69.1449 47.5456C68.4698 48.2207 67.5541 48.6 66.5993 48.6Z" fill="#E6E5FF"/>
</svg>
