<svg width="57" height="59" viewBox="0 0 57 59" fill="none" xmlns="http://www.w3.org/2000/svg">
<path d="M40.198 40.4476L38.9347 41.6294L35.1852 37.5964L33.854 36.1639L35.1173 34.9821L36.4485 36.4146L40.198 40.4476Z" fill="#AD59D4"/>
<path d="M36.4485 36.4145C36.247 36.619 36.0397 36.82 35.829 37.0176C35.6182 37.2151 35.4029 37.4092 35.1852 37.5952L33.854 36.1627L35.1207 34.9808L36.4485 36.4145ZM40.4007 40.637C40.1992 40.8415 39.9919 41.0425 39.7811 41.2401C39.5704 41.4376 39.3551 41.6317 39.1374 41.8177L37.8062 40.3852L39.0729 39.2033L40.4007 40.637Z" fill="#D8A353"/>
<path d="M41.6905 21.6376C41.544 25.771 40.1799 29.7681 37.7703 33.1242C35.3607 36.4803 32.0138 39.0447 28.1523 40.4936C24.2908 41.9425 20.0878 42.2109 16.0744 41.2649C12.0609 40.3189 8.41684 38.2009 5.60253 35.1784C1.83092 31.1209 -0.179774 25.7266 0.0126409 20.1819C0.205056 14.6373 2.58483 9.39637 6.62858 5.61176C15.0351 -2.25559 28.2574 -1.79464 36.0996 6.6411C37.9738 8.64566 39.4329 11.0033 40.3926 13.5774C41.3523 16.1516 41.7934 18.8912 41.6905 21.6376Z" fill="#6E547A"/>
<path d="M37.7959 21.5094C37.6435 25.9125 35.7937 30.0845 32.6361 33.1466C29.4785 36.2087 25.2595 37.922 20.8678 37.9257C20.6674 37.9257 20.4659 37.9222 20.2632 37.9153C19.2103 37.8789 18.163 37.7455 17.1344 37.5167C15.176 37.08 13.3116 36.2943 11.6299 35.1969C10.4676 34.4368 9.40186 33.5375 8.45617 32.519C5.4244 29.2145 3.81858 24.8411 3.98913 20.3532C4.15967 15.8653 6.09274 11.6272 9.3665 8.56382C12.6403 5.50044 16.9889 3.86045 21.4635 4.00171C25.9381 4.14298 30.1754 6.05404 33.2507 9.31786C33.9285 10.0464 34.5419 10.8326 35.084 11.6677C36.179 13.3533 36.9633 15.2226 37.3998 17.1864C37.7144 18.6046 37.8475 20.0573 37.7959 21.5094Z" fill="#5FE4D4"/>
<path d="M26.4598 11.812C23.7199 10.252 20.4746 9.8473 17.4373 10.687C14.4001 11.5267 11.8195 13.542 10.2629 16.2898" stroke="white" stroke-width="15" stroke-linecap="round" stroke-linejoin="round"/>
<path d="M55.7753 57.9557C55.0624 58.6253 54.1218 58.9972 53.1452 58.9954H53.0081C52.5026 58.9794 52.0052 58.8632 51.5447 58.6534C51.0842 58.4436 50.6696 58.1445 50.325 57.7731L36.1399 43.0609L41.7826 37.7778L55.9654 52.482C56.6621 53.234 57.0333 54.2323 56.9976 55.2582C56.962 56.2842 56.5225 57.2542 55.7753 57.9557Z" fill="#8526FE"/>
<path d="M56.2774 57.3826C55.9208 57.8823 55.4508 58.2896 54.9061 58.5709C54.3614 58.8521 53.7578 58.9992 53.1452 58.9999H53.0081C52.5023 58.9834 52.0047 58.8664 51.5442 58.6558C51.0836 58.4453 50.6693 58.1452 50.325 57.7731L36.1399 43.0608L37.0542 42.2047L51.2094 56.8835C51.5539 57.255 51.9685 57.5544 52.429 57.7644C52.8895 57.9744 53.3869 58.0908 53.8925 58.1069H54.0296C54.8362 58.1089 55.6228 57.8554 56.2774 57.3826Z" fill="#592A96"/>
<path d="M41.7031 39.5199L55.0602 52.9198" stroke="white" stroke-width="3" stroke-linecap="round" stroke-linejoin="round"/>
<path d="M34.1996 8.42951C30.8905 4.90901 26.3268 2.84576 21.5058 2.69069C16.6849 2.53562 11.9988 4.30133 8.4717 7.60194C4.94457 10.9025 2.86321 15.4696 2.6825 20.3051C2.5018 25.1406 4.23644 29.8512 7.50733 33.4075C9.13797 35.1707 11.101 36.592 13.2829 37.5891C15.4647 38.5862 17.8221 39.1392 20.2184 39.2161C20.436 39.2242 20.6525 39.2277 20.869 39.2277C24.4233 39.2245 27.8992 38.1802 30.8703 36.2231C33.8413 34.266 36.178 31.4813 37.5937 28.2106C39.0093 24.94 39.4422 21.3259 38.8393 17.8119C38.2364 14.2979 36.6238 11.037 34.1996 8.42951ZM37.796 21.5094C37.6435 25.9126 35.7937 30.0845 32.6361 33.1467C29.4785 36.2088 25.2596 37.9221 20.8679 37.9257C20.6675 37.9257 20.466 37.9223 20.2633 37.9153C16.9136 37.7958 13.6743 36.6832 10.9546 34.7178C8.23484 32.7525 6.15664 30.0228 4.98247 26.8733C3.80829 23.7238 3.5908 20.2958 4.35746 17.0224C5.12413 13.749 6.84056 10.7769 9.28996 8.4815C11.7418 6.18687 14.8168 4.67321 18.1261 4.13193C21.4355 3.59065 24.8305 4.04608 27.8819 5.44061C30.9332 6.83515 33.5038 9.10614 35.2685 11.9664C37.0332 14.8266 37.9128 18.1476 37.796 21.5094Z" fill="#6E547A"/>
<path d="M34.1996 8.42951C30.8905 4.90901 26.3268 2.84576 21.5058 2.69069C16.6849 2.53562 11.9988 4.30133 8.4717 7.60194C4.94457 10.9025 2.86321 15.4696 2.6825 20.3051C2.5018 25.1406 4.23644 29.8512 7.50733 33.4075C9.13797 35.1707 11.101 36.592 13.2829 37.5891C15.4647 38.5862 17.8221 39.1392 20.2184 39.2161C20.436 39.2242 20.6525 39.2277 20.869 39.2277C24.4233 39.2245 27.8992 38.1802 30.8703 36.2231C33.8413 34.266 36.178 31.4813 37.5937 28.2106C39.0093 24.94 39.4422 21.3259 38.8393 17.8119C38.2364 14.2979 36.6238 11.037 34.1996 8.42951ZM37.796 21.5094C37.6435 25.9126 35.7937 30.0845 32.6361 33.1467C29.4785 36.2088 25.2596 37.9221 20.8679 37.9257C20.6675 37.9257 20.466 37.9223 20.2633 37.9153C16.9136 37.7958 13.6743 36.6832 10.9546 34.7178C8.23484 32.7525 6.15664 30.0228 4.98247 26.8733C3.80829 23.7238 3.5908 20.2958 4.35746 17.0224C5.12413 13.749 6.84056 10.7769 9.28996 8.4815C11.7418 6.18687 14.8168 4.67321 18.1261 4.13193C21.4355 3.59065 24.8305 4.04608 27.8819 5.44061C30.9332 6.83515 33.5038 9.10614 35.2685 11.9664C37.0332 14.8266 37.9128 18.1476 37.796 21.5094Z" fill="#D8A353"/>
</svg>
